<?xml version="1.0" encoding="UTF-8"?>
<svg id="Ebene_2" data-name="Ebene 2" xmlns="http://www.w3.org/2000/svg" viewBox="0 0 22.47 26.01">
  <defs>
    <style>
      .cls-1 {
        fill: #2e9bcc;
      }
    </style>
  </defs>
  <g id="Layer_2" data-name="Layer 2">
    <path class="cls-1" d="M12.5,25.4c.12.21.3.38.48.6H1.92c-1.14,0-1.92-.75-1.92-1.85V6.61c0-.5.17-.91.54-1.27C2.22,3.73,3.9,2.11,5.57.49c.16-.16.35-.28.55-.37.21-.08.43-.12.66-.12h11.47c.99,0,1.68.67,1.68,1.62v13.8c-.28-.27-.54-.5-.77-.74-.06-.07-.06-.2-.06-.31V1.69c0-.64-.26-.88-.93-.91H6.73v3.98c0,1.05-.69,1.72-1.78,1.73H.83v17.71c0,.64.37.99,1.03.99h10.22c.19,0,.3.04.4.21h.02Z"/>
    <path class="cls-1" d="M13.54,20.08v-.32h-1.49c-.11,0-.22-.02-.32-.04-.42-.12-.53-.42-.3-.78.06-.1.14-.19.22-.27,1-.99,2.01-1.97,3.02-2.95.43-.42.87-.82,1.34-1.19.48-.37,1.53-.3,1.99.14,1.4,1.36,2.81,2.71,4.21,4.07.12.11.2.25.24.41.09.36-.18.61-.62.62h-1.53v4.78c0,.74-.74,1.46-1.5,1.46h-3.74c-.75,0-1.52-.72-1.51-1.48.01-1.48,0-2.96,0-4.44h0ZM19.48,18.96h1.68l.03-.06c-.58-.54-1.15-1.08-1.72-1.62-.67-.65-1.34-1.3-2.01-1.95-.09-.08-.19-.14-.3-.17-.4-.13-.71.04-.97.31-1.08,1.05-2.16,2.1-3.24,3.16-.11.11-.23.2-.4.35h1.82v.32c0,1.63-.01,3.27,0,4.9,0,.75.36.98.98,1,1.05.03,2.11.02,3.16,0,.38,0,.74-.12.88-.52.06-.17.09-.34.09-.52v-5.19h0Z"/>
    <rect class="cls-1" x="7.81" y="3.32" width="9.91" height=".92"/>
    <rect class="cls-1" x="7.81" y="5.4" width="9.91" height=".92"/>
    <rect class="cls-1" x="1.75" y="7.48" width="15.97" height=".92"/>
    <rect class="cls-1" x="1.75" y="9.56" width="15.97" height=".92"/>
    <rect class="cls-1" x="1.75" y="11.5" width="15.97" height=".92"/>
    <rect class="cls-1" x="1.75" y="13.58" width="11.77" height=".92"/>
    <rect class="cls-1" x="1.75" y="15.66" width="9.15" height=".92"/>
    <rect class="cls-1" x="1.75" y="17.74" width="8.1" height=".92"/>
    <rect class="cls-1" x="1.75" y="19.7" width="8.1" height=".92"/>
    <rect class="cls-1" x="1.75" y="21.81" width="8.1" height=".92"/>
  </g>
</svg>