<?xml version="1.0" encoding="UTF-8"?>
<svg id="Ebene_2" data-name="Ebene 2" xmlns="http://www.w3.org/2000/svg" viewBox="0 0 198.68 130.6">
  <g id="Ebene_2-2" data-name="Ebene 2">
    <g id="_9L8eXd" data-name="9L8eXd">
      <g>
        <polygon points="117.53 117.53 68.26 117.59 93.37 92.41 88.33 87.17 117.83 87.22 117.53 117.53"/>
        <g>
          <path d="M170.74,117.38l-53.21.16.3-30.32-29.5-.05-3.88-4-22.87-22.43-.37,19.79-37.59.17-17.12,16.85c-9.34-15.22-8.53-33.82,1.88-47.92,9.77-13.24,27.18-20.31,43.81-15.99,4.97,1.29,9.1,2.74,14.24,5.85C71.93,12.35,98.43-4.69,125.21,1.15c26.39,5.77,43.44,31.8,37.4,59.12,17.23-3.92,33.17,7.47,35.73,23.9,2.61,16.8-10.02,33.16-27.6,33.21Z"/>
          <polygon points="60.97 117.41 20.72 117.46 20.45 130.6 .48 110.81 20.46 90.93 20.72 104.09 60.92 104.08 60.97 117.41"/>
          <path d="M66.39,99.15H25.75s.02-13.46.02-13.46l40.48.02.51-12.89,19.58,19.48-19.47,19.29c-1.03-4.28-.53-7.3-.48-12.45Z"/>
        </g>
      </g>
    </g>
  </g>
</svg>